HIERARCHY
ROOT Hips
{
    OFFSET 0.000000 0.000000 0.000000
    CHANNELS 6 Xposition Yposition Zposition Zrotation Xrotation Yrotation
    JOINT Spine
    {
        OFFSET -0.000000 7.236184 0.000000
        CHANNELS 3 Zrotation Xrotation Yrotation
        JOINT Spine1
        {
            OFFSET -0.000000 20.420147 0.000000
            CHANNELS 3 Zrotation Xrotation Yrotation
            JOINT Neck
            {
                OFFSET -0.000000 20.336288 1.848754
                CHANNELS 3 Zrotation Xrotation Yrotation
                JOINT Head
                {
                    OFFSET -0.000000 12.354461 -1.764923
                    CHANNELS 3 Zrotation Xrotation Yrotation
                    End Site
                    {
                        OFFSET -0.000000 22.061537 0.000000
                    }
                }
            }
            JOINT LeftShoulder
            {
                OFFSET 3.573296 18.396038 -0.314103
                CHANNELS 3 Zrotation Xrotation Yrotation
                JOINT LeftArm
                {
                    OFFSET 10.880760 0.000000 0.000000
                    CHANNELS 3 Zrotation Xrotation Yrotation
                    JOINT LeftForeArm
                    {
                        OFFSET 27.185530 0.000000 0.000000
                        CHANNELS 3 Zrotation Xrotation Yrotation
                        JOINT LeftHand
                        {
                            OFFSET 27.825975 0.000000 0.000000
                            CHANNELS 3 Zrotation Xrotation Yrotation
                            End Site
                            {
                                OFFSET 13.236923 0.000000 0.000000
                            }
                        }
                    }
                }
            }
            JOINT RightShoulder
            {
                OFFSET -3.474926 18.396038 -0.314103
                CHANNELS 3 Zrotation Xrotation Yrotation
                JOINT RightArm
                {
                    OFFSET -10.880760 0.000000 0.000000
                    CHANNELS 3 Zrotation Xrotation Yrotation
                    JOINT RightForeArm
                    {
                        OFFSET -27.185530 0.000000 0.000000
                        CHANNELS 3 Zrotation Xrotation Yrotation
                        JOINT RightHand
                        {
                            OFFSET -27.825975 0.000000 0.000000
                            CHANNELS 3 Zrotation Xrotation Yrotation
                            End Site
                            {
                                OFFSET -13.236923 0.000000 0.000000
                            }
                        }
                    }
                }
            }
        }
    }
    JOINT LeftUpLeg
    {
        OFFSET 8.824615 0.000000 0.000000
        CHANNELS 3 Zrotation Xrotation Yrotation
        JOINT LeftLeg
        {
            OFFSET -0.000000 -35.111282 0.000000
            CHANNELS 3 Zrotation Xrotation Yrotation
            JOINT LeftFoot
            {
                OFFSET -0.000000 -42.324711 0.000000
                CHANNELS 3 Zrotation Xrotation Yrotation
                JOINT LeftToeBase
                {
                    OFFSET -0.000000 -5.735999 13.236923
                    CHANNELS 3 Zrotation Xrotation Yrotation
                    End Site
                    {
                        OFFSET -0.000000 0.000000 3.529846
                    }
                }
            }
        }
    }
    JOINT RightUpLeg
    {
        OFFSET -8.824615 0.000000 0.000000
        CHANNELS 3 Zrotation Xrotation Yrotation
        JOINT RightLeg
        {
            OFFSET -0.000000 -35.111282 0.000000
            CHANNELS 3 Zrotation Xrotation Yrotation
            JOINT RightFoot
            {
                OFFSET -0.000000 -42.324711 0.000000
                CHANNELS 3 Zrotation Xrotation Yrotation
                JOINT RightToeBase
                {
                    OFFSET -0.000000 -5.735999 13.236923
                    CHANNELS 3 Zrotation Xrotation Yrotation
                    End Site
                    {
                        OFFSET -0.000000 0.000000 3.529846
                    }
                }
            }
        }
    }
}
MOTION
Frames:    14
Frame Time:    0.008333
-3.792370    81.810448    98.116669    -0.867380    -7.920170    -172.717316    -3.030465    -13.498186    0.210447    0.165856    7.965302    0.557694    3.330487    7.419601    -3.203093    7.046191    -8.388594    -2.097843    2.629068    17.367603    -1.795332    -42.794720    48.211597    -44.522690    2.056920    -1.904917    -14.163400    15.930606    -1.734014    -0.604402    4.478841    18.846447    -5.645827    46.386585    45.352219    33.412189    -5.200765    -7.883687    18.828974    -15.310049    -6.619586    -3.060009    5.005332    -8.517838    -5.592016    -1.487438    10.786203    -3.607359    -5.693092    -8.922901    -9.539321    0.323928    0.055604    -0.359027    -5.722502    -1.220320    -0.131406    2.741731    3.266577    2.365305    0.277421    -6.501767    -12.913877    -2.178071    0.216956    2.355008    
-3.787148    81.813354    98.125221    -0.867372    -7.900942    -172.683289    -3.034659    -13.477192    0.210600    0.167209    7.984663    0.557578    3.311498    7.415371    -3.212212    7.066794    -8.450689    -2.097768    2.742016    17.240885    -1.924772    -42.336681    48.143661    -45.057125    1.800238    -1.828015    -14.119868    15.456593    -1.684919    -0.587733    4.399061    18.807547    -5.558276    46.280529    45.155830    33.563972    -5.172079    -7.964916    19.132271    -15.388169    -6.695700    -3.015237    5.003281    -8.528896    -5.525814    -1.466835    10.818081    -3.708251    -5.708985    -8.921144    -9.540503    0.328878    0.052674    -0.364515    -5.719747    -1.224678    -0.158699    2.746238    3.304761    2.319709    0.286565    -6.506241    -12.872912    -2.180395    0.207885    2.357548    
-3.781918    81.816254    98.134048    -0.867460    -7.881056    -172.649445    -3.038926    -13.455677    0.210501    0.168732    8.004135    0.557198    3.292603    7.411775    -3.221302    7.086964    -8.512267    -2.097778    2.855325    17.113155    -2.055309    -41.879837    48.067997    -45.591061    1.544761    -1.752341    -14.076953    14.980772    -1.636801    -0.571681    4.318374    18.767248    -5.469605    46.169281    44.957958    33.721466    -5.142604    -8.044459    19.433035    -15.460696    -6.770787    -2.969914    5.001194    -8.539332    -5.460896    -1.446342    10.849665    -3.807392    -5.724899    -8.919157    -9.542027    0.333781    0.049494    -0.369951    -5.717070    -1.228769    -0.185850    2.750824    3.343184    2.273370    0.295706    -6.510544    -12.831111    -2.182681    0.198808    2.360051    
-3.776608    81.819244    98.143593    -0.867768    -7.859825    -172.615631    -3.043335    -13.433117    0.209813    0.170258    8.023999    0.556309    3.274101    7.410214    -3.230346    7.106207    -8.574663    -2.097811    2.971556    16.981495    -2.189744    -41.418056    47.981556    -46.133125    1.288783    -1.677684    -14.033909    14.497643    -1.589794    -0.555566    4.234962    18.723742    -5.377399    46.045467    44.755344    33.893276    -5.111839    -8.120305    19.732790    -15.524209    -6.843191    -2.922395    4.998912    -8.548850    -5.398005    -1.425932    10.880914    -3.903844    -5.741037    -8.916489    -9.544308    0.338540    0.046713    -0.375229    -5.714536    -1.232631    -0.213131    2.755557    3.382503    2.224857    0.305228    -6.514520    -12.786907    -2.184901    0.189926    2.362479    
-3.771190    81.822319    98.154152    -0.868443    -7.836833    -172.582001    -3.048241    -13.409200    0.208329    0.172261    8.044285    0.554691    3.255668    7.411331    -3.239433    7.124545    -8.637245    -2.097995    3.091416    16.844372    -2.330008    -40.949875    47.881680    -46.686207    1.033500    -1.604624    -13.989990    14.006888    -1.544071    -0.539366    4.147596    18.675591    -5.280367    45.902966    44.546692    34.086136    -5.079956    -8.189957    20.030195    -15.574504    -6.910696    -2.871321    4.996291    -8.557134    -5.338475    -1.405725    10.911631    -3.995455    -5.757550    -8.912888    -9.548061    0.343234    0.043947    -0.380432    -5.712214    -1.236318    -0.240787    2.760340    3.423093    2.173395    0.315141    -6.518004    -12.739116    -2.186934    0.181427    2.364705    
-3.765600    81.825516    98.166138    -0.869636    -7.811560    -172.548584    -3.053656    -13.383427    0.205967    0.174423    8.064984    0.551975    3.238004    7.416240    -3.248507    7.141070    -8.700376    -2.098472    3.217096    16.699284    -2.478263    -40.471172    47.765587    -47.256935    0.778324    -1.532927    -13.943820    13.506894    -1.499666    -0.522730    4.054924    18.621092    -5.176281    45.735538    44.329334    34.307266    -5.046920    -8.251326    20.325535    -15.608894    -6.971446    -2.815483    4.993142    -8.563964    -5.282955    -1.385683    10.941798    -4.081240    -5.774611    -8.907995    -9.553625    0.347821    0.041338    -0.385519    -5.710155    -1.239918    -0.269053    2.765146    3.465434    2.118038    0.325572    -6.520838    -12.686547    -2.188764    0.172810    2.366712    
-3.759787    81.828827    98.179710    -0.871125    -7.783868    -172.515930    -3.059468    -13.355738    0.202467    0.177018    8.085721    0.548208    3.221058    7.425396    -3.257583    7.155619    -8.762671    -2.099326    3.348482    16.545795    -2.634687    -39.985168    47.632496    -47.842606    0.526706    -1.463025    -13.894989    13.004025    -1.456430    -0.505468    3.956606    18.559563    -5.064898    45.540043    44.103664    34.560169    -5.013375    -8.301657    20.614977    -15.624755    -7.022843    -2.754505    4.989829    -8.569360    -5.230745    -1.365789    10.971754    -4.161761    -5.791973    -8.902164    -9.560548    0.352287    0.038842    -0.390470    -5.707951    -1.243469    -0.297784    2.769692    3.509404    2.059131    0.336855    -6.522907    -12.629066    -2.190280    0.165080    2.368376    
-3.753637    81.832291    98.195335    -0.873140    -7.753277    -172.483948    -3.065965    -13.325356    0.197713    0.180052    8.106046    0.543202    3.204774    7.440218    -3.266817    7.168270    -8.824796    -2.100641    3.487672    16.380508    -2.802489    -39.484097    47.479836    -48.452480    0.277452    -1.393646    -13.842238    12.496110    -1.413192    -0.486292    3.850696    18.488827    -4.943442    45.310627    43.865875    34.851639    -4.979883    -8.339789    20.900751    -15.621003    -7.063642    -2.687309    4.986267    -8.572537    -5.187653    -1.347238    10.999875    -4.229210    -5.809974    -8.893953    -9.570760    0.356693    0.036367    -0.395356    -5.705788    -1.247114    -0.327310    2.774086    3.555463    1.996602    0.348726    -6.523974    -12.566435    -2.191440    0.158008    2.369653    
-3.747081    81.835876    98.213272    -0.875632    -7.720181    -172.453140    -3.073229    -13.292506    0.191652    0.183617    8.125278    0.536860    3.189359    7.461008    -3.276184    7.178600    -8.885086    -2.102646    3.635075    16.202518    -2.982031    -38.968220    47.307487    -49.086685    0.033593    -1.323974    -13.785332    11.989594    -1.368636    -0.463795    3.736823    18.408159    -4.811388    45.044590    43.615337    35.184677    -4.947186    -8.364106    21.180695    -15.597618    -7.092147    -2.613884    4.982303    -8.576129    -5.139847    -1.327275    11.030769    -4.300899    -5.827943    -8.885808    -9.580679    0.361049    0.034216    -0.400186    -5.703418    -1.251598    -0.357955    2.777859    3.603805    1.931380    0.360897    -6.523940    -12.498897    -2.192134    0.151911    2.370423    
-3.739998    81.839600    98.233810    -0.878479    -7.684464    -172.423874    -3.081211    -13.256758    0.184263    0.187846    8.142661    0.529105    3.174963    7.488492    -3.285718    7.186214    -8.942915    -2.105421    3.791099    16.010132    -3.174319    -38.434166    47.114845    -49.748417    -0.202907    -1.252425    -13.724334    11.488959    -1.320701    -0.436021    3.613995    18.315540    -4.667206    44.739784    43.351048    35.561752    -4.916939    -8.374077    21.454508    -15.555455    -7.107448    -2.534411    4.978413    -8.578643    -5.098225    -1.308231    11.061131    -4.362330    -5.846262    -8.875769    -9.593124    0.365432    0.031955    -0.405045    -5.700539    -1.257188    -0.389644    2.780826    3.654670    1.865014    0.373455    -6.522815    -12.427707    -2.192402    0.147124    2.370728    
-3.732304    81.843414    98.257263    -0.881786    -7.646834    -172.396469    -3.090227    -13.218244    0.175542    0.192912    8.157005    0.519839    3.161444    7.523220    -3.295476    7.191140    -8.996835    -2.109117    3.956222    15.802131    -3.380290    -37.879143    46.902012    -50.440006    -0.428905    -1.177235    -13.659955    10.999432    -1.267183    -0.400824    3.481606    18.210085    -4.510151    44.393677    43.071606    35.985714    -4.890537    -8.369325    21.721828    -15.496923    -7.108709    -2.449275    4.974407    -8.581856    -5.057433    -1.289166    11.092815    -4.419892    -5.864461    -8.864640    -9.606733    0.369896    0.029730    -0.409994    -5.697307    -1.264872    -0.422544    2.782905    3.708316    1.800351    0.385352    -6.520597    -12.355419    -2.192291    0.143930    2.370618    
-3.723878    81.847298    98.283829    -0.885305    -7.607407    -172.371399    -3.100127    -13.176915    0.165253    0.198961    8.167729    0.509274    3.149237    7.565396    -3.305310    7.192358    -9.045794    -2.113912    4.130007    15.577220    -3.600165    -37.300373    46.669178    -51.162670    -0.641003    -1.096381    -13.593572    10.527309    -1.205559    -0.356305    3.339272    18.090223    -4.339452    44.005180    42.776047    36.457531    -4.869723    -8.349706    21.982670    -15.425597    -7.095250    -2.359140    4.970758    -8.586187    -5.015896    -1.270003    11.126293    -4.475200    -5.882308    -8.852583    -9.620919    0.374627    0.027343    -0.415240    -5.693333    -1.274947    -0.456334    2.783943    3.764718    1.740208    0.396341    -6.517286    -12.284712    -2.191789    0.142096    2.370082    
-3.714632    81.851234    98.313889    -0.889266    -7.566680    -172.349060    -3.111235    -13.132541    0.153564    0.206134    8.173530    0.497200    3.137698    7.615024    -3.315354    7.190554    -9.087845    -2.119854    4.313398    15.333646    -3.835114    -36.691998    46.414989    -51.921928    -0.836632    -1.007394    -13.526709    10.077184    -1.133173    -0.300689    3.185548    17.953979    -4.153586    43.571854    42.461571    36.980576    -4.856349    -8.314898    22.238476    -15.345563    -7.066104    -2.264313    4.967182    -8.592495    -4.973128    -1.250683    11.161826    -4.528111    -5.899544    -8.839457    -9.635783    0.379796    0.025161    -0.420972    -5.688888    -1.288373    -0.491197    2.783863    3.824430    1.687781    0.405469    -6.512955    -12.218424    -2.191060    0.142368    2.369292    
-3.704615    81.855141    98.347069    -0.893397    -7.525377    -172.330200    -3.123129    -13.085980    0.140698    0.214317    8.174106    0.483848    3.127158    7.671453    -3.325326    7.185303    -9.121828    -2.126875    4.503198    15.073860    -4.081671    -36.060997    46.143082    -52.706753    -1.009403    -0.909949    -13.462481    9.661911    -1.048906    -0.234321    3.022605    17.801943    -3.954708    43.100395    42.130707    37.546783    -4.852062    -8.264847    22.486477    -15.263475    -7.020463    -2.167043    4.964248    -8.600660    -4.929406    -1.231745    11.198753    -4.578086    -5.915755    -8.825516    -9.650665    0.385546    0.023141    -0.427346    -5.683752    -1.305037    -0.526239    2.782640    3.886281    1.646181    0.412101    -6.507592    -12.159851    -2.190271    0.144304    2.368434    
